<svg xmlns="http://www.w3.org/2000/svg" width="48" height="42" viewBox="0 0 48 42"><path fill="#3D4F67" fill-opacity=".9" fill-rule="evenodd" d="M.365 5.896C.365 2.64 3.018 0 6.29 0h35.547c3.272 0 5.924 2.64 5.924 5.896v29.48c0 3.256-2.652 5.895-5.924 5.895H6.29c-3.272 0-5.925-2.64-5.925-5.895V5.896Zm9.755 3.811a2.973 2.973 0 0 1 4.189 0l8.887 8.844a2.938 2.938 0 0 1 0 4.17l-8.887 8.843a2.973 2.973 0 0 1-4.19 0 2.938 2.938 0 0 1 0-4.169l6.793-6.76-6.792-6.759a2.938 2.938 0 0 1 0-4.169Zm16.906 16.825a2.955 2.955 0 0 0-2.963 2.948 2.955 2.955 0 0 0 2.963 2.948h8.886a2.955 2.955 0 0 0 2.963-2.948 2.955 2.955 0 0 0-2.963-2.948h-8.886Z" clip-rule="evenodd"/></svg>